<svg xmlns="http://www.w3.org/2000/svg" width="128" height="128" viewBox="0 0 128 128">
  <title>MONEY BAG</title>
  <g>
    <path d="M77.467,38.852s27.483,15.007,28.99,46.906a32.861,32.861,0,0,1-22.449,32.965A64.856,64.856,0,0,1,64,121.693a64.856,64.856,0,0,1-20.008-2.97A32.861,32.861,0,0,1,21.543,85.758c1.507-31.9,28.99-46.906,28.99-46.906Z" fill="#64d465"/>
    <circle cx="64" cy="80.272" r="24.199" transform="translate(-22.61 135.394) rotate(-83.909)" fill="#f4dd45"/>
    <circle cx="64" cy="80.272" r="16.6" transform="translate(-2.277 1.87) rotate(-1.644)" fill="#fcc101"/>
    <path d="M77.467,31.252l8.488-19.047S78.438,6.307,64,6.307s-21.955,5.9-21.955,5.9l8.488,19.047Z" fill="#64d465"/>
    <rect x="50.533" y="31.252" width="26.935" height="7.6" fill="#477b9e"/>
    <path d="M65.361,90.271v1.816H62.78v-1.9a11.629,11.629,0,0,1-6.609-3.035l2.043-2.525a9.7,9.7,0,0,0,4.566,2.44V81.534c-3.489-.907-5.843-2.155-5.843-5.5,0-3.064,2.354-5.418,5.843-5.844v-1.73h2.581v1.759a10.547,10.547,0,0,1,5.957,2.637l-1.928,2.61a9.269,9.269,0,0,0-4.029-2.127V78.67c3.887.879,6.468,2.212,6.468,5.673C71.829,87.605,69.475,89.988,65.361,90.271ZM62.78,77.989V73.28a2.678,2.678,0,0,0-2.269,2.44C60.511,76.854,61.249,77.45,62.78,77.989Zm5.5,6.694c0-1.305-.907-1.9-2.922-2.5v5.049C67.291,87.009,68.283,85.931,68.283,84.683Z" fill="#f4dd45"/>
  </g>
</svg>
